<svg width="20" height="21" viewBox="0 0 20 21" fill="none" xmlns="http://www.w3.org/2000/svg">
<path d="M13.75 3.65784H6.25C4.75 3.65784 4 4.47655 4 6.11398V15.9385C4 17.576 4.75 18.3947 6.25 18.3947H13.75C15.25 18.3947 16 17.576 16 15.9385V6.11398C16 4.47655 15.25 3.65784 13.75 3.65784ZM7 15.9385C6.586 15.9385 6.25 15.5718 6.25 15.1198C6.25 14.6679 6.586 14.3011 7 14.3011C7.414 14.3011 7.75 14.6679 7.75 15.1198C7.75 15.5718 7.414 15.9385 7 15.9385ZM7 13.4824C6.586 13.4824 6.25 13.1156 6.25 12.6637C6.25 12.2118 6.586 11.845 7 11.845C7.414 11.845 7.75 12.2118 7.75 12.6637C7.75 13.1156 7.414 13.4824 7 13.4824ZM10 15.9385C9.586 15.9385 9.25 15.5718 9.25 15.1198C9.25 14.6679 9.586 14.3011 10 14.3011C10.414 14.3011 10.75 14.6679 10.75 15.1198C10.75 15.5718 10.414 15.9385 10 15.9385ZM10 13.4824C9.586 13.4824 9.25 13.1156 9.25 12.6637C9.25 12.2118 9.586 11.845 10 11.845C10.414 11.845 10.75 12.2118 10.75 12.6637C10.75 13.1156 10.414 13.4824 10 13.4824ZM13 15.9385C12.586 15.9385 12.25 15.5718 12.25 15.1198C12.25 14.6679 12.586 14.3011 13 14.3011C13.414 14.3011 13.75 14.6679 13.75 15.1198C13.75 15.5718 13.414 15.9385 13 15.9385ZM13 13.4824C12.586 13.4824 12.25 13.1156 12.25 12.6637C12.25 12.2118 12.586 11.845 13 11.845C13.414 11.845 13.75 12.2118 13.75 12.6637C13.75 13.1156 13.414 13.4824 13 13.4824ZM13.75 8.16076C13.75 8.97947 13.375 9.38883 12.625 9.38883H7.375C6.625 9.38883 6.25 8.97947 6.25 8.16076V7.34205C6.25 6.52333 6.625 6.11398 7.375 6.11398H12.625C13.375 6.11398 13.75 6.52333 13.75 7.34205V8.16076Z" fill="#2633B1" style="fill:#2633B1;fill:color(display-p3 0.1490 0.2000 0.6941);fill-opacity:1;"/>
</svg>
