<svg width="20" height="21" viewBox="0 0 20 21" fill="none" xmlns="http://www.w3.org/2000/svg">
<path d="M5.10826 10.0656C4.77312 9.75283 4.77312 9.24718 5.10826 8.93438C5.4434 8.62158 5.98517 8.62158 6.32031 8.93438L9.14286 11.5688V4.3C9.14286 3.8584 9.526 3.5 10 3.5C10.474 3.5 10.8571 3.8584 10.8571 4.3V11.5688L13.6797 8.93438C14.0148 8.62158 14.5566 8.62158 14.8917 8.93438C15.2269 9.24718 15.2269 9.75283 14.8917 10.0656L10.6069 14.0648C10.5271 14.1392 10.4329 14.1977 10.3275 14.2385C10.2229 14.2793 10.1114 14.3 10 14.3C9.88857 14.3 9.77707 14.2785 9.6725 14.2385C9.56707 14.1977 9.47285 14.1392 9.39314 14.0648L5.10826 10.0656ZM15.1429 15.9H4.85714C4.38314 15.9 4 16.2584 4 16.7C4 17.1416 4.38314 17.5 4.85714 17.5H15.1429C15.6169 17.5 16 17.1416 16 16.7C16 16.2584 15.6169 15.9 15.1429 15.9Z" fill="#2633B1" style="fill:#2633B1;fill:color(display-p3 0.1490 0.2000 0.6941);fill-opacity:1;"/>
</svg>
