<svg width="20" height="20" viewBox="0 0 20 20" fill="none" xmlns="http://www.w3.org/2000/svg">
<path d="M8.87638 17C7.55893 17 6.33273 16.4715 5.42158 15.5112C3.50136 13.4876 3.53013 10.1649 5.48564 8.10345L9.30079 4.08284C9.96351 3.38428 10.8439 3 11.7817 3C12.7195 3 13.5994 3.38428 14.2628 4.08284C15.6295 5.52337 15.6295 7.86616 14.2628 9.30598L10.429 13.3455C9.64037 14.1756 8.26507 14.177 7.47647 13.3455C6.66389 12.4887 6.66389 11.0958 7.47647 10.2397L10.844 6.69092C11.1044 6.41724 11.5254 6.41653 11.7858 6.68951C12.0469 6.9625 12.0468 7.40558 11.7871 7.67926L8.41961 11.2281C8.12455 11.5396 8.12455 12.0457 8.41961 12.3571C8.70534 12.6574 9.20077 12.6567 9.48584 12.3571L13.3197 8.31764C14.1689 7.42239 14.1689 5.96646 13.3197 5.07121C12.4978 4.20535 11.0665 4.20535 10.2446 5.07121L6.42943 9.0918C5.01541 10.582 4.98664 13.069 6.36536 14.5221C7.02408 15.2165 7.91659 15.5994 8.87703 15.5994C9.86278 15.5994 10.8247 15.1829 11.5141 14.4556L14.8622 10.9264C15.1226 10.6527 15.5436 10.652 15.804 10.925C16.0651 11.198 16.0651 11.6411 15.8053 11.9147L12.457 15.444C11.5179 16.433 10.2131 17 8.87638 17Z" fill="#52575B" style="fill:#52575B;fill:color(display-p3 0.3216 0.3412 0.3569);fill-opacity:1;"/>
</svg>
