<svg width="20" height="20" viewBox="0 0 20 20" fill="none" xmlns="http://www.w3.org/2000/svg">
<path d="M16.2632 5.875H8.15789C7.75116 5.875 7.42105 5.539 7.42105 5.125C7.42105 4.711 7.75116 4.375 8.15789 4.375H16.2632C16.6699 4.375 17 4.711 17 5.125C17 5.539 16.6699 5.875 16.2632 5.875ZM17 10C17 9.586 16.6699 9.25 16.2632 9.25H8.15789C7.75116 9.25 7.42105 9.586 7.42105 10C7.42105 10.414 7.75116 10.75 8.15789 10.75H16.2632C16.6699 10.75 17 10.414 17 10ZM17 14.875C17 14.461 16.6699 14.125 16.2632 14.125H8.15789C7.75116 14.125 7.42105 14.461 7.42105 14.875C7.42105 15.289 7.75116 15.625 8.15789 15.625H16.2632C16.6699 15.625 17 15.289 17 14.875ZM5.21053 5.125C5.21053 4.504 4.71537 4 4.10526 4C3.49516 4 3 4.504 3 5.125C3 5.746 3.49516 6.25 4.10526 6.25C4.71537 6.25 5.21053 5.746 5.21053 5.125ZM5.21053 10C5.21053 9.379 4.71537 8.875 4.10526 8.875C3.49516 8.875 3 9.379 3 10C3 10.621 3.49516 11.125 4.10526 11.125C4.71537 11.125 5.21053 10.621 5.21053 10ZM5.21053 14.875C5.21053 14.254 4.71537 13.75 4.10526 13.75C3.49516 13.75 3 14.254 3 14.875C3 15.496 3.49516 16 4.10526 16C4.71537 16 5.21053 15.496 5.21053 14.875Z" fill="#2633B1" style="fill:#2633B1;fill:color(display-p3 0.1490 0.2000 0.6941);fill-opacity:1;"/>
</svg>
