<svg width="30" height="30" viewBox="0 0 30 30" fill="none" xmlns="http://www.w3.org/2000/svg">
<path d="M16.4143 15.0002L21.7073 9.70719C22.0983 9.31719 22.0983 8.68325 21.7073 8.29325C21.3163 7.90225 20.6842 7.90225 20.2933 8.29325L15.0003 13.5862L9.70725 8.29325C9.31625 7.90225 8.68425 7.90225 8.29325 8.29325C7.90225 8.68325 7.90225 9.31719 8.29325 9.70719L13.5862 15.0002L8.29325 20.2933C7.90225 20.6833 7.90225 21.3172 8.29325 21.7072C8.48825 21.9022 8.74425 22.0002 9.00025 22.0002C9.25625 22.0002 9.51225 21.9022 9.70725 21.7072L15.0003 16.4142L20.2933 21.7072C20.4882 21.9022 20.7443 22.0002 21.0003 22.0002C21.2563 22.0002 21.5123 21.9022 21.7073 21.7072C22.0983 21.3172 22.0983 20.6833 21.7073 20.2933L16.4143 15.0002Z" fill="#2633B1" style="fill:#2633B1;fill:color(display-p3 0.1490 0.2000 0.6941);fill-opacity:1;"/>
</svg>
