<svg width="30" height="30" viewBox="0 0 30 30" fill="none" xmlns="http://www.w3.org/2000/svg">
<path d="M7 9C7 8.44772 7.44772 8 8 8H22C22.5523 8 23 8.44772 23 9C23 9.55228 22.5523 10 22 10H8C7.44772 10 7 9.55228 7 9Z" fill="#1B1B1B" style="fill:#1B1B1B;fill:color(display-p3 0.1059 0.1059 0.1059);fill-opacity:1;"/>
<path d="M7 15C7 14.4477 7.44772 14 8 14H22C22.5523 14 23 14.4477 23 15C23 15.5523 22.5523 16 22 16H8C7.44772 16 7 15.5523 7 15Z" fill="#1B1B1B" style="fill:#1B1B1B;fill:color(display-p3 0.1059 0.1059 0.1059);fill-opacity:1;"/>
<path d="M7 21C7 20.4477 7.44772 20 8 20H22C22.5523 20 23 20.4477 23 21C23 21.5523 22.5523 22 22 22H8C7.44772 22 7 21.5523 7 21Z" fill="#1B1B1B" style="fill:#1B1B1B;fill:color(display-p3 0.1059 0.1059 0.1059);fill-opacity:1;"/>
</svg>
