<svg width="20" height="20" viewBox="0 0 20 20" fill="none" xmlns="http://www.w3.org/2000/svg">
<path d="M16 4.66667V8C16 8.368 15.702 8.66667 15.3333 8.66667C14.9647 8.66667 14.6667 8.368 14.6667 8V6.27604L9.80469 11.138C9.67469 11.268 9.504 11.3333 9.33333 11.3333C9.16267 11.3333 8.99198 11.268 8.86198 11.138C8.60131 10.8774 8.60131 10.456 8.86198 10.1953L13.724 5.33333H12C11.6313 5.33333 11.3333 5.03467 11.3333 4.66667C11.3333 4.29867 11.6313 4 12 4H15.3333C15.42 4 15.5067 4.01794 15.5881 4.05127C15.7514 4.1186 15.8814 4.24861 15.9487 4.41195C15.9827 4.49328 16 4.58 16 4.66667ZM15.3333 10C14.9647 10 14.6667 10.2987 14.6667 10.6667V13.3333C14.6667 14.2927 14.2927 14.6667 13.3333 14.6667H6.66667C5.70733 14.6667 5.33333 14.2927 5.33333 13.3333V6.66667C5.33333 5.70733 5.70733 5.33333 6.66667 5.33333H9.33333C9.702 5.33333 10 5.03467 10 4.66667C10 4.29867 9.702 4 9.33333 4H6.66667C4.972 4 4 4.972 4 6.66667V13.3333C4 15.028 4.972 16 6.66667 16H13.3333C15.028 16 16 15.028 16 13.3333V10.6667C16 10.2987 15.702 10 15.3333 10Z" fill="white" style="fill:white;fill:white;fill-opacity:1;"/>
</svg>
