<svg width="28" height="28" viewBox="0 0 28 28" fill="none" xmlns="http://www.w3.org/2000/svg">
<path d="M13.7073 17.2933C14.0983 17.6842 14.0983 18.3163 13.7073 18.7073C13.5123 18.9023 13.2563 19.0003 13.0003 19.0003C12.7443 19.0003 12.4883 18.9023 12.2933 18.7073L8.29325 14.7073C7.90225 14.3163 7.90225 13.6842 8.29325 13.2933L12.2933 9.29325C12.6842 8.90225 13.3163 8.90225 13.7073 9.29325C14.0983 9.68425 14.0983 10.3163 13.7073 10.7073L10.4143 14.0003L13.7073 17.2933ZM16.4143 14.0003L19.7073 10.7073C20.0983 10.3163 20.0983 9.68425 19.7073 9.29325C19.3163 8.90225 18.6842 8.90225 18.2933 9.29325L14.2933 13.2933C13.9023 13.6842 13.9023 14.3163 14.2933 14.7073L18.2933 18.7073C18.4882 18.9023 18.7443 19.0003 19.0003 19.0003C19.2563 19.0003 19.5123 18.9023 19.7073 18.7073C20.0983 18.3163 20.0983 17.6842 19.7073 17.2933L16.4143 14.0003Z" fill="#52575B" style="fill:#52575B;fill:color(display-p3 0.3216 0.3412 0.3569);fill-opacity:1;"/>
</svg>
