<svg width="16" height="16" viewBox="0 0 16 16" fill="none" xmlns="http://www.w3.org/2000/svg">
<g clip-path="url(#clip0_692_2530)">
<path d="M9.61594 8.00013L15.6649 1.95104C16.1117 1.50534 16.1117 0.780845 15.6649 0.335138C15.218 -0.111713 14.4958 -0.111713 14.0489 0.335138L8 6.38415L1.95107 0.335138C1.50423 -0.111713 0.781972 -0.111713 0.335131 0.335138C-0.11171 0.780845 -0.11171 1.50534 0.335131 1.95104L6.38406 8.00013L0.335131 14.0492C-0.11171 14.4949 -0.11171 15.2194 0.335131 15.6651C0.55798 15.888 0.850542 16 1.1431 16C1.43566 16 1.72823 15.888 1.95107 15.6651L8 9.6161L14.0489 15.6651C14.2718 15.888 14.5643 16 14.8569 16C15.1495 16 15.442 15.888 15.6649 15.6651C16.1117 15.2194 16.1117 14.4949 15.6649 14.0492L9.61594 8.00013Z" fill="white"/>
</g>
<defs>
<clipPath id="clip0_692_2530">
<rect width="16" height="16" fill="white"/>
</clipPath>
</defs>
</svg>
