<svg width="18" height="18" viewBox="0 0 18 18" fill="none" xmlns="http://www.w3.org/2000/svg">
<path d="M4.92355 8.49492C4.64426 8.22122 4.64426 7.77878 4.92355 7.50508C5.20283 7.23138 5.65431 7.23138 5.93359 7.50508L8.28571 9.81016V3.7C8.28571 3.3136 8.605 3 9 3C9.395 3 9.71429 3.3136 9.71429 3.7V9.81016L12.0664 7.50508C12.3457 7.23138 12.7972 7.23138 13.0765 7.50508C13.3557 7.77878 13.3557 8.22122 13.0765 8.49492L9.50572 11.9942C9.43929 12.0593 9.36077 12.1105 9.27291 12.1462C9.18577 12.1819 9.09286 12.2 9 12.2C8.90714 12.2 8.81423 12.1812 8.72709 12.1462C8.63923 12.1105 8.56071 12.0593 8.49428 11.9942L4.92355 8.49492ZM13.2857 13.6H4.71429C4.31929 13.6 4 13.9136 4 14.3C4 14.6864 4.31929 15 4.71429 15H13.2857C13.6807 15 14 14.6864 14 14.3C14 13.9136 13.6807 13.6 13.2857 13.6Z" fill="white"/>
</svg>
