<svg width="17" height="16" viewBox="0 0 17 16" fill="none" xmlns="http://www.w3.org/2000/svg">
<path d="M4.35154 8.6C4.47191 11.064 5.30641 13.576 6.75877 15.808C3.35656 15.056 0.764794 12.152 0.5 8.6H4.35154ZM6.75877 0.191992C3.35656 0.943992 0.764794 3.848 0.5 7.4H4.35154C4.47191 4.936 5.30641 2.42399 6.75877 0.191992ZM8.66049 0H8.33951L8.0988 0.343994C6.57422 2.50399 5.68354 4.984 5.55516 7.4H11.4448C11.3165 4.984 10.4258 2.50399 8.9012 0.343994L8.66049 0ZM5.55516 8.6C5.68354 11.016 6.57422 13.496 8.0988 15.656L8.33951 16H8.66049L8.9012 15.656C10.4258 13.496 11.3165 11.016 11.4448 8.6H5.55516ZM12.6485 8.6C12.5281 11.064 11.6936 13.576 10.2412 15.808C13.6434 15.056 16.2352 12.152 16.5 8.6H12.6485ZM16.5 7.4C16.2352 3.848 13.6434 0.943992 10.2412 0.191992C11.6936 2.42399 12.5281 4.936 12.6485 7.4H16.5Z" fill="#3D3D3D"/>
</svg>
