<svg width="24" height="24" viewBox="0 0 24 24" fill="none" xmlns="http://www.w3.org/2000/svg">
<path d="M14.4 5.33333V2.83333L19.2 7.83333H16.8C15.1147 7.83333 14.4 7.08889 14.4 5.33333ZM16.8 9.5C14.2187 9.5 12.8 8.02222 12.8 5.33333V2H7.2C5.06667 2 4 3.11111 4 5.33333V18.6667C4 20.8889 5.06667 22 7.2 22H16.8C18.9333 22 20 20.8889 20 18.6667V9.5H16.8Z" fill="#146863"/>
<path d="M5.82422 17V12.7578H7.33594C7.75977 12.7578 8.12598 12.8428 8.43457 13.0127C8.74512 13.1807 8.98242 13.4238 9.14648 13.7422C9.31055 14.0586 9.39258 14.4355 9.39258 14.873C9.39258 15.3125 9.30957 15.6924 9.14355 16.0127C8.97949 16.3311 8.74121 16.5752 8.42871 16.7451C8.11816 16.915 7.74805 17 7.31836 17H5.82422ZM7.2832 16.2441C7.69336 16.2441 8.00098 16.1328 8.20605 15.9102C8.41113 15.6875 8.51367 15.3418 8.51367 14.873C8.51367 14.4082 8.41113 14.0654 8.20605 13.8447C8.00293 13.624 7.69727 13.5137 7.28906 13.5137H6.70312V16.2441H7.2832ZM13.916 14.8789C13.916 15.3301 13.8301 15.7197 13.6582 16.0479C13.4863 16.376 13.25 16.627 12.9492 16.8008C12.6504 16.9727 12.3125 17.0586 11.9355 17.0586C11.5566 17.0586 11.2168 16.9727 10.916 16.8008C10.6152 16.627 10.3789 16.376 10.207 16.0479C10.0352 15.7178 9.94922 15.3281 9.94922 14.8789C9.94922 14.4277 10.0352 14.0381 10.207 13.71C10.3789 13.3818 10.6152 13.1318 10.916 12.96C11.2168 12.7861 11.5566 12.6992 11.9355 12.6992C12.3125 12.6992 12.6504 12.7861 12.9492 12.96C13.25 13.1318 13.4863 13.3818 13.6582 13.71C13.8301 14.0381 13.916 14.4277 13.916 14.8789ZM10.8457 14.8789C10.8457 15.1758 10.8896 15.4297 10.9775 15.6406C11.0674 15.8496 11.1943 16.0078 11.3584 16.1152C11.5225 16.2227 11.7148 16.2773 11.9355 16.2793C12.1543 16.2773 12.3447 16.2227 12.5068 16.1152C12.6709 16.0059 12.7969 15.8467 12.8848 15.6377C12.9746 15.4287 13.0195 15.1758 13.0195 14.8789C13.0195 14.582 12.9746 14.3291 12.8848 14.1201C12.7969 13.9092 12.6709 13.75 12.5068 13.6426C12.3447 13.5352 12.1543 13.4805 11.9355 13.4785C11.7148 13.4805 11.5225 13.5352 11.3584 13.6426C11.1943 13.75 11.0674 13.9092 10.9775 14.1201C10.8896 14.3291 10.8457 14.582 10.8457 14.8789ZM17.3848 14.2344C17.3496 14.002 17.249 13.8184 17.083 13.6836C16.917 13.5488 16.709 13.4805 16.459 13.4785C16.2383 13.4805 16.0449 13.5361 15.8789 13.6455C15.7148 13.7549 15.5879 13.915 15.498 14.126C15.4082 14.335 15.3633 14.5859 15.3633 14.8789C15.3633 15.1777 15.4082 15.4316 15.498 15.6406C15.5898 15.8496 15.7168 16.0078 15.8789 16.1152C16.043 16.2227 16.2344 16.2773 16.4531 16.2793C16.6973 16.2773 16.9033 16.2129 17.0713 16.0859C17.2393 15.957 17.3438 15.7793 17.3848 15.5527L18.2754 15.5586C18.2422 15.8262 18.1475 16.0742 17.9912 16.3027C17.835 16.5312 17.624 16.7148 17.3584 16.8535C17.0928 16.9902 16.7871 17.0586 16.4414 17.0586C16.0605 17.0586 15.7207 16.9727 15.4219 16.8008C15.125 16.627 14.8916 16.376 14.7217 16.0479C14.5518 15.7178 14.4668 15.3281 14.4668 14.8789C14.4668 14.4277 14.5518 14.0381 14.7217 13.71C14.8936 13.3818 15.1289 13.1318 15.4277 12.96C15.7266 12.7861 16.0645 12.6992 16.4414 12.6992C16.7676 12.6992 17.0625 12.7598 17.3262 12.8809C17.5898 13.002 17.8037 13.1777 17.9678 13.4082C18.1338 13.6387 18.2363 13.9141 18.2754 14.2344H17.3848Z" fill="white"/>
</svg>
