<svg width="24" height="24" viewBox="0 0 24 24" fill="none" xmlns="http://www.w3.org/2000/svg">
<path d="M14.4 5.33333V2.83333L19.2 7.83333H16.8C15.1147 7.83333 14.4 7.08889 14.4 5.33333ZM16.8 9.5C14.2187 9.5 12.8 8.02222 12.8 5.33333V2H7.2C5.06667 2 4 3.11111 4 5.33333V18.6667C4 20.8889 5.06667 22 7.2 22H16.8C18.9333 22 20 20.8889 20 18.6667V9.5H16.8Z" fill="#565860"/>
<path d="M9.2168 12.7578V15.7168C9.2168 15.9883 9.15625 16.2256 9.03516 16.4287C8.91602 16.6299 8.74805 16.7852 8.53125 16.8945C8.31445 17.0039 8.06445 17.0586 7.78125 17.0586C7.51953 17.0586 7.28516 17.0127 7.07812 16.9209C6.87305 16.8271 6.71094 16.6875 6.5918 16.502C6.47461 16.3145 6.41602 16.0859 6.41602 15.8164H7.29492C7.29688 15.9844 7.34473 16.1152 7.43848 16.209C7.53418 16.3027 7.66211 16.3496 7.82227 16.3496C7.99219 16.3496 8.12109 16.2959 8.20898 16.1885C8.29883 16.0811 8.34375 15.9238 8.34375 15.7168V12.7578H9.2168ZM9.93164 12.7578H11.5957C11.9102 12.7578 12.1816 12.8184 12.4102 12.9395C12.6387 13.0605 12.8125 13.2295 12.9316 13.4463C13.0527 13.6611 13.1133 13.9082 13.1133 14.1875C13.1133 14.4707 13.0518 14.7207 12.9287 14.9375C12.8076 15.1523 12.6309 15.3193 12.3984 15.4385C12.168 15.5576 11.8926 15.6172 11.5723 15.6172H10.8105V17H9.93164V12.7578ZM11.4316 14.9082C11.6855 14.9082 11.8779 14.8438 12.0088 14.7148C12.1416 14.584 12.207 14.4082 12.2051 14.1875C12.207 13.9707 12.1416 13.7988 12.0088 13.6719C11.8779 13.5449 11.6855 13.4805 11.4316 13.4785H10.8105V14.9082H11.4316ZM16.4883 14.123C16.4277 13.9219 16.3193 13.7646 16.1631 13.6514C16.0068 13.5381 15.8145 13.4805 15.5859 13.4785C15.3672 13.4805 15.1748 13.5361 15.0088 13.6455C14.8428 13.7549 14.7139 13.9141 14.6221 14.123C14.5303 14.332 14.4844 14.582 14.4844 14.873C14.4844 15.168 14.5293 15.4209 14.6191 15.6318C14.709 15.8428 14.8369 16.0029 15.0029 16.1123C15.1689 16.2217 15.3652 16.2773 15.5918 16.2793C15.791 16.2793 15.9629 16.2432 16.1074 16.1709C16.2539 16.0986 16.3662 15.9971 16.4443 15.8662C16.5244 15.7334 16.5664 15.5781 16.5703 15.4004H15.6504V14.7383H17.4199V15.2656C17.4199 15.6309 17.3418 15.9492 17.1855 16.2207C17.0312 16.4902 16.8145 16.6973 16.5352 16.8418C16.2578 16.9863 15.9414 17.0586 15.5859 17.0586C15.1914 17.0586 14.8428 16.9707 14.54 16.7949C14.2393 16.6172 14.0049 16.3652 13.8369 16.0391C13.6709 15.7109 13.5879 15.3262 13.5879 14.8848C13.5879 14.4375 13.6738 14.0488 13.8457 13.7188C14.0176 13.3887 14.2539 13.1367 14.5547 12.9629C14.8555 12.7871 15.1934 12.6992 15.5684 12.6992C15.8828 12.6992 16.1709 12.7598 16.4326 12.8809C16.6943 13.002 16.9072 13.1709 17.0713 13.3877C17.2373 13.6025 17.3398 13.8477 17.3789 14.123H16.4883Z" fill="white"/>
</svg>
