<svg width="24" height="24" viewBox="0 0 24 24" fill="none" xmlns="http://www.w3.org/2000/svg">
<path d="M14.4 5.33333V2.83333L19.2 7.83333H16.8C15.1147 7.83333 14.4 7.08889 14.4 5.33333ZM16.8 9.5C14.2187 9.5 12.8 8.02222 12.8 5.33333V2H7.2C5.06667 2 4 3.11111 4 5.33333V18.6667C4 20.8889 5.06667 22 7.2 22H16.8C18.9333 22 20 20.8889 20 18.6667V9.5H16.8Z" fill="#525B15"/>
<path d="M7.7168 16.4727L9.84375 13.4844H7.71094V12.7578H10.9453V13.2852L8.82422 16.2734H10.9512V17H7.7168V16.4727ZM12.4922 17H11.6133V12.7578H12.4922V17ZM13.207 12.7578H14.8711C15.1855 12.7578 15.457 12.8184 15.6855 12.9395C15.9141 13.0605 16.0879 13.2295 16.207 13.4463C16.3281 13.6611 16.3887 13.9082 16.3887 14.1875C16.3887 14.4707 16.3271 14.7207 16.2041 14.9375C16.083 15.1523 15.9062 15.3193 15.6738 15.4385C15.4434 15.5576 15.168 15.6172 14.8477 15.6172H14.0859V17H13.207V12.7578ZM14.707 14.9082C14.9609 14.9082 15.1533 14.8438 15.2842 14.7148C15.417 14.584 15.4824 14.4082 15.4805 14.1875C15.4824 13.9707 15.417 13.7988 15.2842 13.6719C15.1533 13.5449 14.9609 13.4805 14.707 13.4785H14.0859V14.9082H14.707Z" fill="white"/>
</svg>
