<svg width="24" height="24" viewBox="0 0 24 24" fill="none" xmlns="http://www.w3.org/2000/svg">
<path d="M14.4 5.33333V2.83333L19.2 7.83333H16.8C15.1147 7.83333 14.4 7.08889 14.4 5.33333ZM16.8 9.5C14.2187 9.5 12.8 8.02222 12.8 5.33333V2H7.2C5.06667 2 4 3.11111 4 5.33333V18.6667C4 20.8889 5.06667 22 7.2 22H16.8C18.9333 22 20 20.8889 20 18.6667V9.5H16.8Z" fill="#AF522A"/>
<path d="M6.69141 12.7578H8.35547C8.66992 12.7578 8.94141 12.8184 9.16992 12.9395C9.39844 13.0605 9.57227 13.2295 9.69141 13.4463C9.8125 13.6611 9.87305 13.9082 9.87305 14.1875C9.87305 14.4707 9.81152 14.7207 9.68848 14.9375C9.56738 15.1523 9.39062 15.3193 9.1582 15.4385C8.92773 15.5576 8.65234 15.6172 8.33203 15.6172H7.57031V17H6.69141V12.7578ZM8.19141 14.9082C8.44531 14.9082 8.6377 14.8438 8.76855 14.7148C8.90137 14.584 8.9668 14.4082 8.96484 14.1875C8.9668 13.9707 8.90137 13.7988 8.76855 13.6719C8.6377 13.5449 8.44531 13.4805 8.19141 13.4785H7.57031V14.9082H8.19141ZM10.4297 12.7578H12.0938C12.4082 12.7578 12.6797 12.8184 12.9082 12.9395C13.1367 13.0605 13.3105 13.2295 13.4297 13.4463C13.5508 13.6611 13.6113 13.9082 13.6113 14.1875C13.6113 14.4707 13.5498 14.7207 13.4268 14.9375C13.3057 15.1523 13.1289 15.3193 12.8965 15.4385C12.666 15.5576 12.3906 15.6172 12.0703 15.6172H11.3086V17H10.4297V12.7578ZM11.9297 14.9082C12.1836 14.9082 12.376 14.8438 12.5068 14.7148C12.6396 14.584 12.7051 14.4082 12.7031 14.1875C12.7051 13.9707 12.6396 13.7988 12.5068 13.6719C12.376 13.5449 12.1836 13.4805 11.9297 13.4785H11.3086V14.9082H11.9297ZM14.0039 12.7578H17.4785V13.4844H16.1777V17H15.3047V13.4844H14.0039V12.7578Z" fill="white"/>
</svg>
