<svg width="24" height="24" viewBox="0 0 24 24" fill="none" xmlns="http://www.w3.org/2000/svg">
<path d="M14.4 5.33333V2.83333L19.2 7.83333H16.8C15.1147 7.83333 14.4 7.08889 14.4 5.33333ZM16.8 9.5C14.2187 9.5 12.8 8.02222 12.8 5.33333V2H7.2C5.06667 2 4 3.11111 4 5.33333V18.6667C4 20.8889 5.06667 22 7.2 22H16.8C18.9333 22 20 20.8889 20 18.6667V9.5H16.8Z" fill="#3D456C"/>
<path d="M6.58594 12.7578H9.43359V13.4844H7.46484V14.5156H9.28711V15.2422H7.46484V16.2734H9.43945V17H6.58594V12.7578ZM9.95508 12.7578H13.4297V13.4844H12.1289V17H11.2559V13.4844H9.95508V12.7578ZM16.623 14.2344C16.5879 14.002 16.4873 13.8184 16.3213 13.6836C16.1553 13.5488 15.9473 13.4805 15.6973 13.4785C15.4766 13.4805 15.2832 13.5361 15.1172 13.6455C14.9531 13.7549 14.8262 13.915 14.7363 14.126C14.6465 14.335 14.6016 14.5859 14.6016 14.8789C14.6016 15.1777 14.6465 15.4316 14.7363 15.6406C14.8281 15.8496 14.9551 16.0078 15.1172 16.1152C15.2812 16.2227 15.4727 16.2773 15.6914 16.2793C15.9355 16.2773 16.1416 16.2129 16.3096 16.0859C16.4775 15.957 16.582 15.7793 16.623 15.5527L17.5137 15.5586C17.4805 15.8262 17.3857 16.0742 17.2295 16.3027C17.0732 16.5312 16.8623 16.7148 16.5967 16.8535C16.3311 16.9902 16.0254 17.0586 15.6797 17.0586C15.2988 17.0586 14.959 16.9727 14.6602 16.8008C14.3633 16.627 14.1299 16.376 13.96 16.0479C13.79 15.7178 13.7051 15.3281 13.7051 14.8789C13.7051 14.4277 13.79 14.0381 13.96 13.71C14.1318 13.3818 14.3672 13.1318 14.666 12.96C14.9648 12.7861 15.3027 12.6992 15.6797 12.6992C16.0059 12.6992 16.3008 12.7598 16.5645 12.8809C16.8281 13.002 17.042 13.1777 17.2061 13.4082C17.3721 13.6387 17.4746 13.9141 17.5137 14.2344H16.623Z" fill="white"/>
</svg>
