<svg width="24" height="24" viewBox="0 0 24 24" fill="none" xmlns="http://www.w3.org/2000/svg">
<path d="M14.4 5.33333V2.83333L19.2 7.83333H16.8C15.1147 7.83333 14.4 7.08889 14.4 5.33333ZM16.8 9.5C14.2187 9.5 12.8 8.02222 12.8 5.33333V2H7.2C5.06667 2 4 3.11111 4 5.33333V18.6667C4 20.8889 5.06667 22 7.2 22H16.8C18.9333 22 20 20.8889 20 18.6667V9.5H16.8Z" fill="#2E5D2F"/>
<path d="M8.45508 14.2168H8.48438L9.35742 12.7578H10.3535L9.05859 14.8789L10.3828 17H9.36328L8.48438 15.541H8.45508L7.57617 17H6.5625L7.89258 14.8789L6.58594 12.7578H7.58789L8.45508 14.2168ZM10.8867 12.7578H11.7656V16.2734H13.5938V17H10.8867V12.7578ZM16.4648 13.9707C16.4473 13.8027 16.374 13.6719 16.2451 13.5781C16.1182 13.4844 15.9473 13.4375 15.7324 13.4375C15.5859 13.4375 15.46 13.459 15.3545 13.502C15.251 13.543 15.1719 13.6006 15.1172 13.6748C15.0625 13.749 15.0352 13.833 15.0352 13.9268C15.0352 14.0674 15.0957 14.1787 15.2168 14.2607C15.3398 14.3408 15.5059 14.4043 15.7148 14.4512L16.0957 14.5449C16.4883 14.6348 16.7979 14.7812 17.0244 14.9844C17.251 15.1855 17.3652 15.4531 17.3672 15.7871C17.3672 16.0449 17.3018 16.2695 17.1709 16.4609C17.04 16.6523 16.8516 16.7998 16.6055 16.9033C16.3594 17.0068 16.0664 17.0586 15.7266 17.0586C15.3828 17.0605 15.085 17.0088 14.833 16.9033C14.5811 16.7979 14.3848 16.6416 14.2441 16.4346C14.1035 16.2275 14.0293 15.9746 14.0215 15.6758H14.877C14.8906 15.8848 14.9727 16.0449 15.123 16.1562C15.2754 16.2656 15.4727 16.3203 15.7148 16.3203C15.8672 16.3203 16.001 16.2979 16.1162 16.2529C16.2314 16.208 16.3203 16.1455 16.3828 16.0654C16.4453 15.9854 16.4766 15.8926 16.4766 15.7871C16.4766 15.6504 16.417 15.542 16.2979 15.4619C16.1807 15.3799 15.998 15.3086 15.75 15.248L15.2871 15.1367C14.5176 14.9473 14.1328 14.5625 14.1328 13.9824C14.1328 13.7305 14.2012 13.5078 14.3379 13.3145C14.4766 13.1191 14.667 12.9678 14.9092 12.8604C15.1533 12.7529 15.4297 12.6992 15.7383 12.6992C16.0469 12.6992 16.3193 12.7529 16.5557 12.8604C16.792 12.9678 16.9756 13.1182 17.1064 13.3115C17.2373 13.5029 17.3047 13.7227 17.3086 13.9707H16.4648Z" fill="white"/>
</svg>
