<svg width="24" height="24" viewBox="0 0 24 24" fill="none" xmlns="http://www.w3.org/2000/svg">
<path d="M14.4 5.33333V2.83333L19.2 7.83333H16.8C15.1147 7.83333 14.4 7.08889 14.4 5.33333ZM16.8 9.5C14.2187 9.5 12.8 8.02222 12.8 5.33333V2H7.2C5.06667 2 4 3.11111 4 5.33333V18.6667C4 20.8889 5.06667 22 7.2 22H16.8C18.9333 22 20 20.8889 20 18.6667V9.5H16.8Z" fill="#A40A0A"/>
<path d="M6.69727 12.7578H8.36133C8.67578 12.7578 8.94727 12.8184 9.17578 12.9395C9.4043 13.0605 9.57812 13.2295 9.69727 13.4463C9.81836 13.6611 9.87891 13.9082 9.87891 14.1875C9.87891 14.4707 9.81738 14.7207 9.69434 14.9375C9.57324 15.1523 9.39648 15.3193 9.16406 15.4385C8.93359 15.5576 8.6582 15.6172 8.33789 15.6172H7.57617V17H6.69727V12.7578ZM8.19727 14.9082C8.45117 14.9082 8.64355 14.8438 8.77441 14.7148C8.90723 14.584 8.97266 14.4082 8.9707 14.1875C8.97266 13.9707 8.90723 13.7988 8.77441 13.6719C8.64355 13.5449 8.45117 13.4805 8.19727 13.4785H7.57617V14.9082H8.19727ZM10.4355 17V12.7578H11.9473C12.3711 12.7578 12.7373 12.8428 13.0459 13.0127C13.3564 13.1807 13.5938 13.4238 13.7578 13.7422C13.9219 14.0586 14.0039 14.4355 14.0039 14.873C14.0039 15.3125 13.9209 15.6924 13.7549 16.0127C13.5908 16.3311 13.3525 16.5752 13.04 16.7451C12.7295 16.915 12.3594 17 11.9297 17H10.4355ZM11.8945 16.2441C12.3047 16.2441 12.6123 16.1328 12.8174 15.9102C13.0225 15.6875 13.125 15.3418 13.125 14.873C13.125 14.4082 13.0225 14.0654 12.8174 13.8447C12.6143 13.624 12.3086 13.5137 11.9004 13.5137H11.3145V16.2441H11.8945ZM14.6426 12.7578H17.4375V13.4844H15.5215V14.5156H17.2559V15.2422H15.5215V17H14.6426V12.7578Z" fill="white"/>
</svg>
