<svg width="24" height="24" viewBox="0 0 24 24" fill="none" xmlns="http://www.w3.org/2000/svg">
<path d="M14.4 5.33333V2.83333L19.2 7.83333H16.8C15.1147 7.83333 14.4 7.08889 14.4 5.33333ZM16.8 9.5C14.2187 9.5 12.8 8.02222 12.8 5.33333V2H7.2C5.06667 2 4 3.11111 4 5.33333V18.6667C4 20.8889 5.06667 22 7.2 22H16.8C18.9333 22 20 20.8889 20 18.6667V9.5H16.8Z" fill="#305895"/>
<path d="M5.83203 12.7578H6.71094V14.5156H8.55078V12.7578H9.43555V17H8.55078V15.2422H6.71094V17H5.83203V12.7578ZM9.88672 12.7578H10.8477L11.5625 15.7227H11.5977L12.377 12.7578H13.2031L13.9824 15.7285H14.0176L14.7324 12.7578H15.6934L14.4805 17H13.6191L12.8105 14.1992H12.7754L11.9609 17H11.0996L9.88672 12.7578ZM16.1445 12.7578H17.8086C18.123 12.7578 18.3945 12.8184 18.623 12.9395C18.8516 13.0605 19.0254 13.2295 19.1445 13.4463C19.2656 13.6611 19.3262 13.9082 19.3262 14.1875C19.3262 14.4707 19.2646 14.7207 19.1416 14.9375C19.0205 15.1523 18.8438 15.3193 18.6113 15.4385C18.3809 15.5576 18.1055 15.6172 17.7852 15.6172H17.0234V17H16.1445V12.7578ZM17.6445 14.9082C17.8984 14.9082 18.0908 14.8438 18.2217 14.7148C18.3545 14.584 18.4199 14.4082 18.418 14.1875C18.4199 13.9707 18.3545 13.7988 18.2217 13.6719C18.0908 13.5449 17.8984 13.4805 17.6445 13.4785H17.0234V14.9082H17.6445Z" fill="white"/>
</svg>
