<svg width="20" height="20" viewBox="0 0 20 20" fill="none" xmlns="http://www.w3.org/2000/svg">
<path fill-rule="evenodd" clip-rule="evenodd" d="M14.666 17H12.1773C12.0482 17 11.944 16.8957 11.944 16.7666V13.4999C11.944 12.4257 11.0737 11.5553 9.99962 11.5553C8.92557 11.5553 8.05528 12.4257 8.05528 13.4999V16.7666C8.05528 16.8957 7.95103 17 7.82192 17H5.33321C3.77774 17 3 16.2222 3 14.6666V9.72827C3 8.17421 3.4068 7.93547 4.1122 7.34433L8.75061 3.45443C9.47313 2.84852 10.527 2.84852 11.2495 3.45443L15.8879 7.34433C16.5925 7.93547 17 8.17421 17 9.72827V14.6666C16.9992 16.2222 16.2215 17 14.666 17Z" fill="#52575B" style="fill:#52575B;fill:color(display-p3 0.3216 0.3412 0.3569);fill-opacity:1;"/>
</svg>
