<svg width="26" height="26" viewBox="0 0 26 26" fill="none" xmlns="http://www.w3.org/2000/svg">
<path d="M14.8179 13.0001L21.623 6.19492C22.1257 5.6935 22.1257 4.87845 21.623 4.37703C21.1203 3.87432 20.3077 3.87432 19.805 4.37703L13 11.1822L6.19496 4.37703C5.69226 3.87432 4.87972 3.87432 4.37702 4.37703C3.87433 4.87845 3.87433 5.6935 4.37702 6.19492L11.1821 13.0001L4.37702 19.8054C3.87433 20.3068 3.87433 21.1218 4.37702 21.6233C4.62773 21.874 4.95686 22 5.28599 22C5.61512 22 5.94425 21.874 6.19496 21.6233L13 14.8181L19.805 21.6233C20.0557 21.874 20.3849 22 20.714 22C21.0431 22 21.3723 21.874 21.623 21.6233C22.1257 21.1218 22.1257 20.3068 21.623 19.8054L14.8179 13.0001Z" fill="#314EB4"/>
</svg>
