<svg width="31" height="30" viewBox="0 0 31 30" fill="none" xmlns="http://www.w3.org/2000/svg">
<path d="M17.3179 15.0001L24.123 8.19492C24.6257 7.6935 24.6257 6.87845 24.123 6.37703C23.6203 5.87432 22.8077 5.87432 22.305 6.37703L15.5 13.1822L8.69496 6.37703C8.19226 5.87432 7.37972 5.87432 6.87702 6.37703C6.37433 6.87845 6.37433 7.6935 6.87702 8.19492L13.6821 15.0001L6.87702 21.8054C6.37433 22.3068 6.37433 23.1218 6.87702 23.6233C7.12773 23.874 7.45686 24 7.78599 24C8.11512 24 8.44425 23.874 8.69496 23.6233L15.5 16.8181L22.305 23.6233C22.5557 23.874 22.8849 24 23.214 24C23.5431 24 23.8723 23.874 24.123 23.6233C24.6257 23.1218 24.6257 22.3068 24.123 21.8054L17.3179 15.0001Z" fill="#314EB4"/>
</svg>
