<svg width="24" height="24" viewBox="0 0 24 24" fill="none" xmlns="http://www.w3.org/2000/svg">
<path d="M6.25373 8.66656H7.7306C8.12678 8.66656 8.50966 8.55448 8.81139 8.35048L11.8963 6.26588C12.8032 5.65322 14.1948 6.16732 14.1948 7.11531V16.8844C14.1948 17.8324 12.8032 18.3472 11.8963 17.7338L8.81139 15.6492C8.50966 15.4452 8.12678 15.3331 7.7306 15.3331H6.25373C5.56167 15.3331 5 14.8852 5 14.3332V9.6672C5 9.11454 5.56167 8.66656 6.25373 8.66656ZM17.3425 15.1805C18.4116 14.3318 19 13.2018 19 11.9999C19 10.7979 18.4116 9.66788 17.3425 8.81923C17.0968 8.62456 16.6999 8.62453 16.4558 8.82053C16.2109 9.01586 16.2125 9.33321 16.4574 9.52788C17.2882 10.1879 17.7463 11.0665 17.7463 12.0005C17.7463 12.9345 17.2882 13.8131 16.4574 14.4731C16.2125 14.6678 16.2109 14.9845 16.4558 15.1805C16.5778 15.2785 16.7392 15.3278 16.8996 15.3278C17.0601 15.3264 17.2197 15.2778 17.3425 15.1805Z" fill="#314EB4"/>
</svg>
