<svg width="20" height="20" viewBox="0 0 20 20" fill="none" xmlns="http://www.w3.org/2000/svg">
<path d="M15.8648 15.2123L13.501 12.8486C14.2912 11.9114 14.7694 10.7034 14.7694 9.38462C14.7694 6.41538 12.3539 4 9.38468 4C6.41541 4 4 6.41538 4 9.38462C4 12.3538 6.41541 14.7692 9.38468 14.7692C10.7035 14.7692 11.9115 14.2911 12.8487 13.5009L15.2124 15.8646C15.3023 15.9545 15.4204 16 15.5386 16C15.6567 16 15.7749 15.9551 15.8648 15.8646C16.0451 15.6849 16.0451 15.3926 15.8648 15.2123ZM4.92309 9.38462C4.92309 6.92431 6.92434 4.92308 9.38468 4.92308C11.845 4.92308 13.8463 6.92431 13.8463 9.38462C13.8463 11.8449 11.845 13.8462 9.38468 13.8462C6.92434 13.8462 4.92309 11.8449 4.92309 9.38462Z" fill="#9E9E9E"/>
</svg>
