<svg width="18" height="18" viewBox="0 0 18 18" fill="none" xmlns="http://www.w3.org/2000/svg">
<path d="M14.8648 14.2123L12.501 11.8486C13.2912 10.9114 13.7694 9.70338 13.7694 8.38462C13.7694 5.41538 11.3539 3 8.38468 3C5.41541 3 3 5.41538 3 8.38462C3 11.3538 5.41541 13.7692 8.38468 13.7692C9.70346 13.7692 10.9115 13.2911 11.8487 12.5009L14.2124 14.8646C14.3023 14.9545 14.4204 15 14.5386 15C14.6567 15 14.7749 14.9551 14.8648 14.8646C15.0451 14.6849 15.0451 14.3926 14.8648 14.2123ZM3.92309 8.38462C3.92309 5.92431 5.92434 3.92308 8.38468 3.92308C10.845 3.92308 12.8463 5.92431 12.8463 8.38462C12.8463 10.8449 10.845 12.8462 8.38468 12.8462C5.92434 12.8462 3.92309 10.8449 3.92309 8.38462Z" fill="white" style="fill:white;fill:white;fill-opacity:1;"/>
</svg>
