<svg width="14" height="14" viewBox="0 0 14 14" fill="none" xmlns="http://www.w3.org/2000/svg">
<path d="M13 1.66667V5C13 5.368 12.702 5.66667 12.3333 5.66667C11.9647 5.66667 11.6667 5.368 11.6667 5V3.27604L6.80469 8.13802C6.67469 8.26802 6.504 8.33333 6.33333 8.33333C6.16267 8.33333 5.99198 8.26802 5.86198 8.13802C5.60131 7.87735 5.60131 7.45598 5.86198 7.19531L10.724 2.33333H9C8.63133 2.33333 8.33333 2.03467 8.33333 1.66667C8.33333 1.29867 8.63133 1 9 1H12.3333C12.42 1 12.5067 1.01794 12.5881 1.05127C12.7514 1.1186 12.8814 1.24861 12.9487 1.41195C12.9827 1.49328 13 1.58 13 1.66667ZM12.3333 7C11.9647 7 11.6667 7.29867 11.6667 7.66667V10.3333C11.6667 11.2927 11.2927 11.6667 10.3333 11.6667H3.66667C2.70733 11.6667 2.33333 11.2927 2.33333 10.3333V3.66667C2.33333 2.70733 2.70733 2.33333 3.66667 2.33333H6.33333C6.702 2.33333 7 2.03467 7 1.66667C7 1.29867 6.702 1 6.33333 1H3.66667C1.972 1 1 1.972 1 3.66667V10.3333C1 12.028 1.972 13 3.66667 13H10.3333C12.028 13 13 12.028 13 10.3333V7.66667C13 7.29867 12.702 7 12.3333 7Z" fill="#3D3D3D"/>
</svg>
