<svg width="28" height="28" viewBox="0 0 28 28" fill="none" xmlns="http://www.w3.org/2000/svg">
<path d="M14.2927 17.2933C13.9017 17.6842 13.9017 18.3163 14.2927 18.7073C14.4877 18.9023 14.7437 19.0003 14.9997 19.0003C15.2557 19.0003 15.5117 18.9023 15.7067 18.7073L19.7068 14.7073C20.0978 14.3163 20.0978 13.6842 19.7068 13.2933L15.7067 9.29325C15.3158 8.90225 14.6837 8.90225 14.2927 9.29325C13.9017 9.68425 13.9017 10.3163 14.2927 10.7073L17.5857 14.0003L14.2927 17.2933ZM11.5857 14.0003L8.29269 10.7073C7.90169 10.3163 7.90169 9.68425 8.29269 9.29325C8.68369 8.90225 9.31575 8.90225 9.70675 9.29325L13.7067 13.2933C14.0977 13.6842 14.0977 14.3163 13.7067 14.7073L9.70675 18.7073C9.51175 18.9023 9.25572 19.0003 8.99972 19.0003C8.74372 19.0003 8.48769 18.9023 8.29269 18.7073C7.90169 18.3163 7.90169 17.6842 8.29269 17.2933L11.5857 14.0003Z" fill="#52575B" style="fill:#52575B;fill:color(display-p3 0.3216 0.3412 0.3569);fill-opacity:1;"/>
</svg>
